<svg width="21" height="21" viewBox="0 0 21 21" fill="none" xmlns="http://www.w3.org/2000/svg">
<g opacity="0.75">
<path d="M17.5 11.375C17.286 12.9148 16.5717 14.3416 15.4671 15.4355C14.3624 16.5293 12.9288 17.2297 11.387 17.4287C9.84514 17.6276 8.28067 17.3141 6.93455 16.5364C5.58843 15.7588 4.53534 14.5601 3.9375 13.125M3.5 16.625V13.125H7M3.5 9.62501C3.71399 8.0852 4.42831 6.65847 5.53294 5.56457C6.63757 4.47068 8.07121 3.77032 9.61304 3.57137C11.1549 3.37243 12.7193 3.68594 14.0654 4.4636C15.4116 5.24127 16.4647 6.43996 17.0625 7.87501M17.5 4.37501V7.87501H14" stroke="#083F46" stroke-width="1.5" stroke-linecap="round" stroke-linejoin="round"/>
</g>
</svg>
